<svg width="22" height="22" viewBox="0 0 22 22" fill="none" xmlns="http://www.w3.org/2000/svg">
<g clip-path="url(#clip0_1_932)">
<path d="M3.51977 6.16L1.75977 21.56H20.2398L18.4798 6.16H3.51977Z" stroke="#0D0D0D" stroke-width="1.5" stroke-miterlimit="10" stroke-linecap="round"/>
<path d="M14.9591 8.36C14.9591 7.81396 14.9591 5.38604 14.9591 4.84C14.9591 2.65276 13.1863 0.880005 10.9991 0.880005C8.81182 0.880005 7.03906 2.65276 7.03906 4.84C7.03906 5.38604 7.03906 7.81396 7.03906 8.36" stroke="#0D0D0D" stroke-width="1.5" stroke-miterlimit="10" stroke-linecap="round"/>
<path d="M14.9601 9.24001C15.4461 9.24001 15.8401 8.84602 15.8401 8.36001C15.8401 7.874 15.4461 7.48001 14.9601 7.48001C14.4741 7.48001 14.0801 7.874 14.0801 8.36001C14.0801 8.84602 14.4741 9.24001 14.9601 9.24001Z" fill="#0D0D0D"/>
<path d="M7.04016 9.24001C7.52617 9.24001 7.92016 8.84602 7.92016 8.36001C7.92016 7.874 7.52617 7.48001 7.04016 7.48001C6.55415 7.48001 6.16016 7.874 6.16016 8.36001C6.16016 8.84602 6.55415 9.24001 7.04016 9.24001Z" fill="#0D0D0D"/>
</g>
<defs>
<clipPath id="clip0_1_932">
<rect width="22" height="22" fill="white"/>
</clipPath>
</defs>
</svg>
