<svg width="28" height="28" viewBox="0 0 28 28" fill="none" xmlns="http://www.w3.org/2000/svg">
<circle cx="14.4636" cy="13.5359" r="13.5359" fill="#A67C54"/>
<path d="M16.9985 7.94965L11.5841 7.94965C10.089 7.94965 8.87695 9.16169 8.87695 10.6568L8.87695 16.0712C8.87695 17.5663 10.089 18.7784 11.5841 18.7784H16.9985C18.4936 18.7784 19.7057 17.5663 19.7057 16.0712V10.6568C19.7057 9.16169 18.4936 7.94965 16.9985 7.94965Z" stroke="white" stroke-width="1.2" stroke-linecap="round" stroke-linejoin="round"/>
<path d="M16.4565 13.0228C16.5233 13.4734 16.4464 13.9336 16.2366 14.3379C16.0267 14.7423 15.6948 15.0701 15.2879 15.275C14.881 15.4798 14.4199 15.551 13.9701 15.4787C13.5204 15.4063 13.1049 15.194 12.7828 14.8718C12.4607 14.5497 12.2483 14.1343 12.1759 13.6845C12.1036 13.2348 12.1749 12.7736 12.3797 12.3667C12.5845 11.9598 12.9124 11.6279 13.3167 11.4181C13.7211 11.2083 14.1813 11.1313 14.6319 11.1981C15.0915 11.2663 15.517 11.4805 15.8456 11.809C16.1742 12.1376 16.3883 12.5631 16.4565 13.0228Z" stroke="white" stroke-width="1.2" stroke-linecap="round" stroke-linejoin="round"/>
<path d="M17.2695 10.3859H17.2754" stroke="white" stroke-width="1.2" stroke-linecap="round" stroke-linejoin="round"/>
</svg>
